<svg width="200" height="81" viewBox="0 0 200 81" fill="none" xmlns="http://www.w3.org/2000/svg">
<path fill-rule="evenodd" clip-rule="evenodd" d="M144.797 53.0077C145.501 53.7114 145.501 54.8522 144.797 55.5559L120.876 79.4763C120.173 80.18 119.032 80.18 118.328 79.4763C117.625 78.7727 117.625 77.6318 118.328 76.9282L142.249 53.0077C142.952 52.3041 144.093 52.3041 144.797 53.0077Z" fill="black"/>
<path fill-rule="evenodd" clip-rule="evenodd" d="M15.3775 52.48C16.3726 52.48 17.1793 53.2867 17.1793 54.2818V78.2023C17.1793 79.1974 16.3726 80.0041 15.3775 80.0041C14.3824 80.0041 13.5757 79.1974 13.5757 78.2023V54.2818C13.5757 53.2867 14.3824 52.48 15.3775 52.48Z" fill="black"/>
<path fill-rule="evenodd" clip-rule="evenodd" d="M1.61541 66.242C1.61541 65.2469 2.4221 64.4402 3.41721 64.4402H27.3377C28.3328 64.4402 29.1395 65.2469 29.1395 66.242C29.1395 67.2371 28.3328 68.0438 27.3377 68.0438H3.41721C2.4221 68.0438 1.61541 67.2371 1.61541 66.242Z" fill="black"/>
<path fill-rule="evenodd" clip-rule="evenodd" d="M59.708 66.242C59.708 65.2469 60.5147 64.4402 61.5098 64.4402H85.4303C86.4254 64.4402 87.2321 65.2469 87.2321 66.242C87.2321 67.2371 86.4254 68.0438 85.4303 68.0438H61.5098C60.5147 68.0438 59.708 67.2371 59.708 66.242Z" fill="black"/>
<path fill-rule="evenodd" clip-rule="evenodd" d="M199.472 54.7164C200.176 55.42 200.176 56.5608 199.472 57.2645L178.969 77.7677C178.265 78.4714 177.125 78.4714 176.421 77.7677C175.717 77.0641 175.717 75.9233 176.421 75.2196L196.924 54.7164C197.628 54.0127 198.769 54.0127 199.472 54.7164Z" fill="black"/>
<path fill-rule="evenodd" clip-rule="evenodd" d="M176.421 54.7164C177.125 54.0127 178.265 54.0127 178.969 54.7164L199.472 75.2196C200.176 75.9233 200.176 77.0641 199.472 77.7677C198.769 78.4714 197.628 78.4714 196.924 77.7677L176.421 57.2645C175.717 56.5608 175.717 55.42 176.421 54.7164Z" fill="black"/>
<path d="M14.7949 35.7806C14.1596 35.7806 13.6414 35.5971 13.2402 35.2301C12.8724 34.8298 12.6885 34.3127 12.6885 33.6788V3.75321H1.90578C1.30396 3.75321 0.835869 3.60308 0.501522 3.30283C0.167174 3.00257 0 2.56886 0 2.00171C0 1.43456 0.167174 1.00086 0.501522 0.7006C0.835869 0.400343 1.30396 0.250213 1.90578 0.250213H27.6338C28.2357 0.250213 28.7037 0.400343 29.0381 0.7006C29.3724 1.00086 29.5396 1.43456 29.5396 2.00171C29.5396 2.56886 29.3724 3.00257 29.0381 3.30283C28.7037 3.60308 28.2357 3.75321 27.6338 3.75321H16.8511V33.6788C16.8511 34.3127 16.6672 34.8298 16.2994 35.2301C15.9317 35.5971 15.4301 35.7806 14.7949 35.7806Z" fill="black"/>
<path d="M48.7126 10.559C51.588 10.559 53.7613 11.3764 55.2324 13.0111C56.7035 14.6125 57.4391 17.0146 57.4391 20.2173V33.7789C57.4391 34.4128 57.2552 34.9132 56.8874 35.2802C56.5196 35.6138 56.0348 35.7806 55.433 35.7806C54.7977 35.7806 54.2962 35.6138 53.9285 35.2802C53.5607 34.9132 53.3768 34.4128 53.3768 33.7789V20.3174C53.3768 18.1489 52.9254 16.5475 52.0227 15.5133C51.1534 14.4791 49.7491 13.9619 47.8099 13.9619C45.5698 13.9619 43.781 14.6459 42.4436 16.0137C41.1062 17.3815 40.4375 19.2331 40.4375 21.5685V33.7789C40.4375 34.4128 40.2536 34.9132 39.8858 35.2802C39.5515 35.6138 39.0667 35.7806 38.4314 35.7806C37.7962 35.7806 37.2947 35.6138 36.9269 35.2802C36.5591 34.9132 36.3752 34.4128 36.3752 33.7789V1.95167C36.3752 1.38452 36.5591 0.917452 36.9269 0.55047C37.3281 0.18349 37.8296 0 38.4314 0C39.0667 0 39.5515 0.18349 39.8858 0.55047C40.2536 0.88409 40.4375 1.35116 40.4375 1.95167V15.0629C41.24 13.595 42.36 12.4773 43.7977 11.71C45.2354 10.9427 46.8737 10.559 48.7126 10.559Z" fill="black"/>
<path d="M83.787 29.8756C84.1548 29.8756 84.4724 30.0257 84.7399 30.326C85.0074 30.6262 85.1411 31.0099 85.1411 31.4769C85.1411 32.311 84.556 33.0783 83.3858 33.7789C82.1821 34.4795 80.9116 35.0133 79.5742 35.3803C78.2368 35.7139 76.9329 35.8807 75.6623 35.8807C71.8842 35.8807 68.8918 34.7631 66.6851 32.5278C64.5119 30.2926 63.4252 27.2066 63.4252 23.2699C63.4252 20.7678 63.91 18.5659 64.8796 16.6643C65.8492 14.7293 67.2034 13.228 68.942 12.1604C70.714 11.0928 72.7201 10.559 74.9602 10.559C78.1365 10.559 80.6608 11.5933 82.5332 13.6617C84.4055 15.7301 85.3417 18.5325 85.3417 22.0689C85.3417 22.7361 85.208 23.2199 84.9405 23.5201C84.673 23.8204 84.2384 23.9705 83.6365 23.9705H67.4875C67.7885 29.7088 70.5134 32.5779 75.6623 32.5779C76.9663 32.5779 78.0864 32.4111 79.0225 32.0775C79.9587 31.7105 80.9618 31.2267 82.0317 30.6262C82.901 30.1258 83.4861 29.8756 83.787 29.8756ZM75.0104 13.7117C72.8705 13.7117 71.1487 14.379 69.8447 15.7134C68.5742 17.0479 67.8219 18.9329 67.5879 21.3683H81.7809C81.714 18.8995 81.0955 17.0146 79.9253 15.7134C78.7551 14.379 77.1168 13.7117 75.0104 13.7117Z" fill="black"/>
<path d="M123.324 0C123.959 0 124.444 0.200171 124.779 0.600515C125.146 0.967495 125.33 1.46792 125.33 2.1018V33.7789C125.33 34.3794 125.163 34.8632 124.829 35.2301C124.494 35.5971 124.026 35.7806 123.424 35.7806C122.823 35.7806 122.371 35.5971 122.07 35.2301C121.769 34.8632 121.619 34.3794 121.619 33.7789V8.20703L110.736 29.0248C110.268 29.9923 109.582 30.4761 108.68 30.4761C107.81 30.4761 107.125 29.9923 106.623 29.0248L95.6903 8.45724V33.7789C95.6903 34.3794 95.5231 34.8632 95.1888 35.2301C94.8879 35.5971 94.4365 35.7806 93.8347 35.7806C93.2328 35.7806 92.7648 35.5971 92.4304 35.2301C92.0961 34.8632 91.9289 34.3794 91.9289 33.7789V2.1018C91.9289 1.46792 92.1128 0.967495 92.4806 0.600515C92.8483 0.200171 93.3499 0 93.9851 0C94.821 0 95.4897 0.483747 95.9912 1.45124L108.73 25.8221L121.318 1.45124C121.586 0.917452 121.87 0.550472 122.171 0.350302C122.505 0.116767 122.889 0 123.324 0Z" fill="black"/>
<path d="M143.476 10.559C149.595 10.559 152.654 13.7618 152.654 20.1673V33.7789C152.654 34.3794 152.47 34.8632 152.102 35.2301C151.768 35.5971 151.3 35.7806 150.698 35.7806C150.096 35.7806 149.612 35.5971 149.244 35.2301C148.876 34.8632 148.692 34.3794 148.692 33.7789V31.3769C148.057 32.8114 147.087 33.929 145.783 34.7297C144.479 35.497 142.975 35.8807 141.27 35.8807C139.698 35.8807 138.244 35.5638 136.906 34.9299C135.602 34.296 134.566 33.4119 133.797 32.2776C133.028 31.1433 132.643 29.8922 132.643 28.5244C132.643 26.6895 133.112 25.2716 134.048 24.2708C134.984 23.2366 136.522 22.5026 138.662 22.0689C140.802 21.6018 143.777 21.3683 147.589 21.3683H148.692V19.7169C148.692 17.7152 148.274 16.2472 147.438 15.3131C146.636 14.379 145.315 13.9119 143.476 13.9119C141.203 13.9119 138.896 14.5291 136.555 15.7635C135.653 16.3306 135.017 16.6142 134.65 16.6142C134.248 16.6142 133.914 16.4641 133.646 16.1638C133.379 15.8636 133.245 15.4799 133.245 15.0128C133.245 14.5458 133.379 14.1454 133.646 13.8118C133.947 13.4448 134.415 13.0779 135.051 12.7109C136.221 12.0436 137.542 11.5265 139.013 11.1596C140.517 10.7592 142.005 10.559 143.476 10.559ZM141.821 32.678C143.827 32.678 145.466 32.0107 146.736 30.6763C148.04 29.3084 148.692 27.5569 148.692 25.4218V23.9705H147.789C144.847 23.9705 142.607 24.104 141.069 24.3709C139.531 24.6044 138.428 25.0214 137.759 25.6219C137.124 26.1891 136.806 27.0398 136.806 28.1741C136.806 29.4752 137.274 30.5595 138.21 31.4269C139.18 32.2609 140.384 32.678 141.821 32.678Z" fill="black"/>
<path d="M171.375 32.5779C172.545 32.678 173.13 33.2118 173.13 34.1792C173.13 34.7464 172.913 35.1801 172.478 35.4804C172.077 35.7473 171.458 35.8473 170.622 35.7806L169.268 35.6805C166.593 35.4804 164.621 34.6797 163.35 33.2785C162.08 31.8773 161.444 29.7588 161.444 26.923V14.3623H158.084C157.516 14.3623 157.065 14.2288 156.73 13.9619C156.429 13.6617 156.279 13.278 156.279 12.811C156.279 12.3105 156.429 11.9102 156.73 11.6099C157.065 11.3097 157.516 11.1596 158.084 11.1596H161.444V5.50471C161.444 4.87084 161.628 4.38709 161.996 4.05347C162.364 3.68649 162.865 3.503 163.501 3.503C164.103 3.503 164.587 3.68649 164.955 4.05347C165.323 4.38709 165.507 4.87084 165.507 5.50471V11.1596H171.074C171.609 11.1596 172.027 11.3097 172.327 11.6099C172.662 11.9102 172.829 12.3105 172.829 12.811C172.829 13.278 172.662 13.6617 172.327 13.9619C172.027 14.2288 171.609 14.3623 171.074 14.3623H165.507V27.1232C165.507 28.9581 165.875 30.2926 166.61 31.1266C167.379 31.9273 168.516 32.3777 170.02 32.4778L171.375 32.5779Z" fill="black"/>
<path d="M189.472 10.559C192.347 10.559 194.52 11.3764 195.991 13.0111C197.463 14.6125 198.198 17.0146 198.198 20.2173V33.7789C198.198 34.4128 198.014 34.9132 197.646 35.2802C197.279 35.6138 196.794 35.7806 196.192 35.7806C195.557 35.7806 195.055 35.6138 194.688 35.2802C194.32 34.9132 194.136 34.4128 194.136 33.7789V20.3174C194.136 18.1489 193.684 16.5475 192.782 15.5133C191.912 14.4791 190.508 13.9619 188.569 13.9619C186.329 13.9619 184.54 14.6459 183.203 16.0137C181.865 17.3815 181.197 19.2331 181.197 21.5685V33.7789C181.197 34.4128 181.013 34.9132 180.645 35.2802C180.311 35.6138 179.826 35.7806 179.19 35.7806C178.555 35.7806 178.054 35.6138 177.686 35.2802C177.318 34.9132 177.134 34.4128 177.134 33.7789V1.95167C177.134 1.38452 177.318 0.917452 177.686 0.55047C178.087 0.18349 178.589 0 179.19 0C179.826 0 180.311 0.18349 180.645 0.55047C181.013 0.88409 181.197 1.35116 181.197 1.95167V15.0629C181.999 13.595 183.119 12.4773 184.557 11.71C185.994 10.9427 187.633 10.559 189.472 10.559Z" fill="black"/>
</svg>
